<svg id="svg" version="1.1" width="64px" height="64px"  preserveAspectRatio="xMidYMid meet">
    <g id="svgg">
        <path id="path3"
              d="M155.976 79.708 C 125.581 86.015,113.715 122.226,134.480 145.308 C 146.673 158.862,168.517 161.736,184.354 151.870 L 186.010 150.839 207.548 177.766 L 229.087 204.694 226.602 207.821 C 218.062 218.567,213.848 234.584,216.259 247.132 C 216.495 248.358,216.641 249.391,216.583 249.427 C 216.281 249.617,152.587 272.714,152.372 272.712 C 152.232 272.710,151.600 271.921,150.966 270.958 C 139.682 253.801,114.389 248.964,96.731 260.587 C 71.892 276.937,73.789 314.681,100.133 328.303 C 126.629 342.004,157.505 323.593,157.558 294.063 L 157.570 287.612 189.822 275.885 L 222.074 264.158 222.866 265.712 C 227.626 275.041,239.636 284.573,251.287 288.267 C 290.838 300.810,328.355 263.534,315.870 224.099 C 305.946 192.753,272.244 179.416,241.734 194.760 C 241.577 194.839,231.445 182.402,219.218 167.122 L 196.987 139.341 198.200 137.217 C 214.283 109.057,187.876 73.090,155.976 79.708 M125.552 270.850 C 146.012 277.314,148.053 305.454,128.733 314.720 C 105.970 325.638,84.401 298.390,100.092 278.538 C 105.955 271.122,116.414 267.964,125.552 270.850 "
              stroke="none" fill="#0e9a95" fill-rule="evenodd"></path>
    </g>
</svg>